<?xml version="1.0" standalone="no"?>
<!DOCTYPE svg PUBLIC "-//W3C//DTD SVG 20010904//EN"
 "http://www.w3.org/TR/2001/REC-SVG-20010904/DTD/svg10.dtd">
<svg version="1.0" xmlns="http://www.w3.org/2000/svg"
 width="500.000000pt" height="500.000000pt" viewBox="0 0 500.000000 500.000000"
 preserveAspectRatio="xMidYMid meet">

<g transform="translate(0.000000,500.000000) scale(0.100000,-0.100000)"
fill="#000000" stroke="none">
<path d="M0 2500 l0 -2500 2500 0 2500 0 0 2500 0 2500 -2500 0 -2500 0 0
-2500z m1473 2189 c-5 -19 -2 -20 33 -13 34 6 37 5 26 -8 -10 -13 -8 -17 17
-28 17 -7 41 -27 55 -44 l24 -32 -24 -32 c-14 -17 -43 -41 -65 -54 -28 -16
-39 -27 -36 -40 5 -19 -7 -32 -41 -43 -21 -6 -23 -5 -13 13 15 28 14 32 -9 32
-28 0 -25 18 5 26 16 4 25 13 25 26 0 19 -1 19 -31 1 -27 -16 -30 -22 -28 -62
3 -33 -1 -46 -16 -57 -27 -20 -37 -17 -25 5 5 11 10 26 10 33 -1 7 -12 -8 -26
-34 -13 -27 -31 -48 -39 -48 -21 0 -19 14 6 36 26 24 63 94 49 94 -6 0 -16
-11 -22 -25 -6 -14 -15 -25 -20 -25 -15 0 -8 23 12 45 12 13 18 29 14 38 -8
22 -21 22 -27 0 -4 -14 -5 -14 -6 3 0 12 6 27 13 34 8 6 25 32 36 56 12 24 31
49 41 55 11 6 19 18 17 28 -4 23 19 51 37 45 7 -3 11 -14 8 -25z m2406 -266
c0 -146 -2 -173 -14 -173 -12 0 -15 15 -15 71 0 44 4 68 10 64 6 -3 10 3 10
15 0 12 -4 18 -10 15 -11 -7 -13 115 -3 173 12 73 22 2 22 -165z m-2546 -110
c-7 -2 -19 -2 -25 0 -7 3 -2 5 12 5 14 0 19 -2 13 -5z m-118 -23 c-3 -5 -12
-10 -18 -10 -7 0 -6 4 3 10 19 12 23 12 15 0z m891 -82 c5 -7 2 -8 -7 -3 -8 5
-4 -3 7 -16 12 -13 30 -34 40 -46 22 -27 30 -28 67 -9 23 13 27 13 27 0 0 -25
16 -15 54 31 39 48 60 54 92 30 10 -8 31 -15 47 -15 l27 0 0 -84 c0 -47 4 -87
8 -90 4 -2 7 34 5 80 l-3 85 47 -3 48 -3 0 -130 0 -130 -64 0 c-45 -1 -66 -5
-69 -14 -3 -8 -20 -31 -38 -51 -38 -42 -42 -70 -17 -126 10 -22 18 -46 18 -54
0 -8 11 -17 25 -19 14 -1 28 -8 33 -15 5 -8 10 -7 16 3 5 8 20 16 33 18 13 2
24 8 26 13 2 5 10 6 18 3 8 -3 14 1 14 9 0 9 12 14 34 15 45 1 53 7 61 46 9
41 52 117 67 117 6 0 4 -8 -5 -18 -9 -10 -23 -35 -32 -56 l-16 -38 50 42 c28
24 51 47 51 52 0 10 -16 3 -44 -21 -18 -15 -18 -15 -5 9 7 14 13 29 14 33 1
27 63 35 71 10 3 -10 14 -37 26 -61 20 -41 20 -43 3 -62 -10 -11 -26 -20 -36
-20 -10 0 -21 -4 -24 -10 -3 -5 4 -10 16 -10 17 0 20 -4 15 -22 -22 -75 -13
-91 18 -33 10 19 28 38 40 41 30 10 76 67 105 132 6 12 12 22 14 22 9 0 97
-52 97 -57 0 -3 -6 -3 -14 0 -15 6 -30 -18 -21 -33 3 -4 -5 -11 -18 -15 -20
-6 -18 -8 13 -14 49 -10 79 -32 140 -101 49 -57 72 -71 85 -51 3 5 -17 35 -45
67 -50 57 -59 74 -40 74 7 0 7 6 0 19 -5 11 -10 22 -10 24 0 9 45 -6 61 -20
11 -9 29 -12 58 -7 27 4 41 3 41 -4 0 -6 15 -18 34 -27 35 -17 66 -65 66 -104
0 -12 11 -49 25 -83 14 -34 23 -63 21 -65 -2 -3 -23 5 -45 17 -23 11 -46 18
-50 15 -5 -3 -11 0 -13 7 -3 8 -15 5 -39 -10 -44 -27 -65 -50 -73 -82 -5 -16
-4 -20 2 -12 7 10 14 5 30 -22 12 -20 35 -44 52 -54 16 -10 27 -22 23 -25 -3
-4 -1 -7 5 -7 8 0 9 -7 2 -25 -5 -14 -6 -25 -2 -25 4 0 -4 -10 -18 -21 -22
-18 -22 -19 -3 -9 19 8 22 8 17 -4 -8 -20 -52 -48 -65 -41 -5 4 -8 1 -7 -5 4
-14 -138 -90 -178 -94 -16 -2 -35 1 -41 6 -7 6 -13 7 -13 4 0 -4 -9 -2 -21 4
-20 11 -20 11 -4 -14 11 -17 22 -23 33 -19 35 13 -8 -25 -52 -46 -59 -29 -67
-28 -54 12 6 17 11 40 11 50 1 9 7 17 14 17 20 0 27 28 13 45 -17 20 -47 10
-81 -26 -20 -21 -37 -29 -61 -29 -19 0 -40 -6 -47 -12 -10 -11 -11 -10 -6 5 4
10 2 17 -5 17 -6 0 -9 4 -5 9 3 5 -3 16 -13 23 -11 7 -35 58 -55 113 -20 55
-36 95 -36 88 -2 -25 32 -140 49 -168 10 -16 21 -48 25 -70 10 -58 30 -90 71
-115 29 -16 34 -24 24 -30 -11 -7 -8 -11 12 -19 14 -5 28 -16 31 -23 4 -9 13
-5 30 14 21 23 76 58 91 58 14 0 -19 -188 -41 -232 -11 -24 -11 -28 3 -36 15
-9 15 -12 2 -31 -45 -64 -151 -109 -231 -97 -45 7 -166 72 -174 93 -7 17 28
104 40 100 5 -1 16 -23 24 -47 8 -25 22 -52 30 -60 14 -13 14 -8 8 55 -4 39
-13 81 -20 95 -14 27 -98 109 -128 127 -14 7 -20 26 -24 69 -5 52 -1 70 27
135 65 151 138 334 135 337 -2 3 -17 -5 -33 -17 -17 -12 -34 -21 -39 -21 -5 0
-41 -28 -79 -62 -38 -35 -81 -72 -96 -84 -32 -25 -68 -82 -68 -108 0 -11 -3
-16 -7 -13 -3 4 -15 0 -25 -10 -26 -23 -22 -4 8 42 l27 40 -33 -30 c-18 -16
-41 -49 -52 -73 -11 -25 -25 -42 -32 -39 -7 3 -35 -18 -63 -47 -28 -28 -60
-56 -70 -63 -17 -10 -21 -7 -31 21 -15 42 -15 46 3 46 9 0 12 6 8 16 -4 10 1
22 11 30 27 20 18 77 -14 84 -14 3 -25 11 -24 18 2 29 4 35 10 30 5 -6 44 27
44 37 0 16 -31 0 -68 -35 -46 -43 -55 -46 -113 -29 -51 16 -84 52 -81 89 1 17
-3 30 -8 30 -6 0 -8 5 -5 10 3 6 -5 10 -19 10 -14 0 -28 5 -31 10 -5 8 -11 8
-19 1 -14 -12 -44 -8 -75 9 -27 14 -27 15 9 18 16 1 45 11 64 21 19 11 37 17
40 14 3 -3 8 1 11 9 4 10 14 14 26 11 20 -5 27 -23 9 -23 -5 0 -10 -6 -10 -12
0 -15 90 76 90 91 0 15 -190 4 -233 -14 -20 -8 -37 -12 -37 -8 0 15 76 42 135
48 33 4 71 9 85 13 22 5 19 7 -25 19 -59 17 -59 17 -109 4 -22 -5 -43 -8 -47
-5 -14 8 4 45 32 64 28 20 48 13 32 -12 -8 -14 43 17 65 38 23 24 14 62 -18
79 -16 9 -30 11 -30 6 0 -5 -14 -3 -30 6 -19 9 -41 12 -60 8 -19 -4 -30 -3
-30 5 0 6 -6 10 -12 9 -43 -5 -64 2 -65 23 -1 11 -6 24 -10 27 -7 5 -35 58
-37 71 -1 3 -21 26 -46 52 l-45 47 -42 -11 c-23 -7 -45 -9 -49 -5 -4 3 10 27
30 52 21 25 35 49 32 54 -3 5 1 12 10 15 8 3 14 11 13 18 -3 28 2 37 18 31 10
-4 14 -2 9 5 -3 6 -2 13 4 17 5 3 10 2 10 -3 0 -15 80 -24 96 -11 9 7 14 8 14
1 0 -6 13 -7 34 -2 19 4 37 5 40 2 4 -3 6 -1 6 4 0 6 15 10 33 10 56 -1 38
-28 -46 -69 -70 -34 -77 -40 -71 -60 15 -51 27 -51 95 -2 113 80 174 99 258
80 25 -6 32 -5 27 4 -9 15 -80 51 -100 51 -33 0 -2 28 37 34 23 4 67 17 97 30
63 27 86 31 96 14z m1024 -33 c-13 -14 -26 -22 -29 -19 -3 3 5 14 18 25 33 27
39 24 11 -6z m-103 -90 c0 -8 -4 -12 -9 -9 -4 3 -11 -2 -14 -10 -3 -9 -11 -16
-17 -16 -6 0 0 11 13 25 28 29 27 29 27 10z m543 -35 c0 -18 -19 -11 -30 11
-11 19 -10 20 9 9 12 -6 21 -15 21 -20z m-50 5 c35 -18 70 -61 70 -87 0 -10 7
-33 16 -50 11 -22 13 -33 5 -41 -8 -8 -11 -6 -11 7 0 10 -5 16 -12 13 -7 -2
-11 -11 -9 -18 2 -8 6 -22 8 -31 8 -29 -12 -20 -24 10 -11 26 -11 26 -6 -8 3
-19 12 -45 19 -57 18 -28 18 -34 -1 -27 -8 4 -12 10 -9 15 3 5 1 9 -3 9 -5 0
-14 12 -20 28 l-12 27 4 -26 c3 -23 0 -26 -18 -21 -12 3 -16 7 -9 10 10 3 10
7 1 18 -9 11 -9 18 -1 26 17 17 15 25 -8 31 -15 4 -20 0 -20 -14 0 -17 -3 -18
-21 -9 -13 7 -18 17 -15 27 4 8 -7 33 -24 56 -16 23 -30 49 -30 58 0 20 65 53
87 45 11 -4 13 -2 9 9 -7 19 -2 19 34 0z m-2122 -202 c-12 -15 -68 -18 -68 -4
0 11 25 19 57 18 17 -1 19 -4 11 -14z m42 -27 c0 -2 -9 -6 -20 -9 -11 -3 -18
-1 -14 4 5 9 34 13 34 5z m111 -23 c13 -16 12 -17 -3 -4 -10 7 -18 15 -18 17
0 8 8 3 21 -13z m-111 -28 c10 -12 10 -15 -4 -15 -9 0 -16 7 -16 15 0 8 2 15
4 15 2 0 9 -7 16 -15z m2219 -67 c20 -31 -3 -18 -34 20 -29 35 -29 36 -3 17
14 -11 31 -28 37 -37z m-2114 23 c-3 -6 -2 -27 3 -48 5 -23 5 -61 -2 -96 -10
-55 -12 -58 -35 -52 -15 4 -27 1 -32 -7 -7 -10 -9 -10 -9 0 0 6 -9 21 -20 32
-21 21 -28 80 -10 80 6 0 10 7 10 15 0 8 12 21 28 29 15 8 36 23 46 35 20 22
32 28 21 12z m1055 -1 c0 -5 -5 -10 -11 -10 -5 0 -7 5 -4 10 3 6 8 10 11 10 2
0 4 -4 4 -10z m-929 -52 c0 -7 2 -8 5 -3 5 11 77 12 112 1 26 -9 30 -47 7 -66
-12 -10 -15 -10 -15 4 0 27 -46 19 -82 -14 -18 -16 -27 -30 -20 -30 7 0 10 -4
7 -10 -3 -6 -21 -2 -43 10 -20 11 -42 20 -49 20 -7 0 -13 7 -13 15 0 26 22 53
40 48 10 -3 21 0 24 6 4 6 2 11 -4 11 -6 0 -8 5 -5 10 9 14 35 12 36 -2z m15
-152 c23 -18 17 -25 -25 -30 -25 -3 -31 0 -27 11 3 8 6 19 6 24 0 14 24 11 46
-5z m-104 -11 c3 3 8 -3 11 -14 4 -15 0 -19 -14 -16 -27 5 -53 32 -36 38 6 2
17 0 23 -4 6 -5 13 -6 16 -4z m1827 -94 c20 -11 43 -27 50 -35 21 -26 -16 -20
-49 7 -15 12 -36 27 -46 34 -31 20 3 15 45 -6z m-127 -13 c-7 -7 -12 -8 -12
-2 0 6 3 14 7 17 3 4 9 5 12 2 2 -3 -1 -11 -7 -17z m277 -51 c-2 -30 -2 -31
-6 -4 -5 28 -23 38 -23 11 0 -9 -5 -12 -12 -8 -7 4 -8 3 -4 -5 8 -13 -18 -61
-41 -74 -8 -5 -13 -29 -13 -69 0 -73 -9 -71 -16 3 -6 65 -14 77 -14 21 0 -52
-15 -63 -18 -12 -2 23 3 44 13 53 8 9 15 19 15 24 1 11 65 79 87 91 25 14 33
6 32 -31z m215 -36 c7 -11 10 -11 17 0 5 9 10 5 15 -14 7 -31 -3 -49 -15 -28
-7 11 -11 9 -20 -7 -6 -11 -11 -29 -11 -40 0 -26 -25 -48 -36 -31 -4 6 0 16
10 21 19 11 22 64 4 72 -10 5 -10 7 0 12 7 3 12 26 13 52 1 46 1 46 8 12 4
-20 11 -42 15 -49z m66 59 c0 -5 -4 -10 -10 -10 -5 0 -10 5 -10 10 0 6 5 10
10 10 6 0 10 -4 10 -10z m-495 -18 c-3 -3 -11 0 -18 7 -9 10 -8 11 6 5 10 -3
15 -9 12 -12z m375 -54 c-1 -57 -3 -69 -11 -55 -10 17 -4 127 7 127 2 0 4 -33
4 -72z m-355 22 c3 -5 2 -10 -4 -10 -5 0 -13 5 -16 10 -3 6 -2 10 4 10 5 0 13
-4 16 -10z m282 -67 c-2 -16 -4 -5 -4 22 0 28 2 40 4 28 2 -13 2 -35 0 -50z
m230 30 c-3 -10 -5 -4 -5 12 0 17 2 24 5 18 2 -7 2 -21 0 -30z m-37 -8 c0 -8
-4 -15 -10 -15 -5 0 -10 7 -10 15 0 8 5 15 10 15 6 0 10 -7 10 -15z m-2054
-110 c3 -46 1 -64 -7 -60 -6 4 -23 11 -37 16 l-27 9 28 -4 c32 -4 32 -5 7 24
-13 15 -18 31 -14 44 6 21 34 49 41 42 3 -2 6 -34 9 -71z m2284 59 c0 -2 -12
-4 -27 -4 -21 0 -24 3 -14 9 13 8 41 5 41 -5z m-670 -31 c0 -21 -3 -24 -9 -14
-5 8 -7 20 -4 28 8 21 13 15 13 -14z m653 10 c-7 -2 -19 -2 -25 0 -7 3 -2 5
12 5 14 0 19 -2 13 -5z m-343 -13 c0 -5 -2 -10 -4 -10 -3 0 -8 5 -11 10 -3 6
-1 10 4 10 6 0 11 -4 11 -10z m-220 -84 c-11 -15 -7 -20 12 -17 4 0 5 -5 2
-13 -3 -8 5 -21 17 -30 13 -8 20 -18 17 -21 -12 -13 -67 68 -65 96 2 24 4 26
16 14 12 -11 12 -17 1 -29z m-1017 -1 c-3 -9 -8 -14 -10 -11 -3 3 -2 9 2 15 9
16 15 13 8 -4z m1304 -37 c-3 -8 -6 -5 -6 6 -1 11 2 17 5 13 3 -3 4 -12 1 -19z
m-887 -42 c0 -2 -15 -6 -34 -8 -19 -2 -32 0 -30 4 5 8 64 12 64 4z m470 -168
c0 -7 -9 -24 -20 -38 l-20 -25 10 35 c6 19 10 36 10 37 0 2 5 3 10 3 6 0 10
-6 10 -12z m-1910 -8 c0 -5 -4 -10 -10 -10 -5 0 -10 5 -10 10 0 6 5 10 10 10
6 0 10 -4 10 -10z m2262 -9 c48 -22 100 -67 178 -156 36 -40 27 -33 -27 22
-96 97 -135 123 -185 123 -27 0 -38 4 -38 15 0 20 20 19 72 -4z m-1627 -30 c5
-10 -12 -14 -108 -26 -27 -4 -67 -13 -90 -21 -58 -20 -151 -82 -173 -115 -24
-36 -31 -29 -9 8 19 32 104 98 155 121 79 35 212 54 225 33z m1445 -37 c0 -8
-5 -12 -10 -9 -6 4 -8 11 -5 16 9 14 15 11 15 -7z m190 0 c31 -5 54 -23 132
-103 89 -90 137 -155 124 -169 -3 -3 -6 0 -6 6 0 7 -24 36 -52 65 -29 29 -65
66 -79 83 -33 38 -109 104 -120 104 -5 0 -9 -7 -9 -14 0 -12 -6 -13 -29 -5
-20 7 -29 17 -28 30 1 12 6 17 15 14 8 -3 31 -8 52 -11z m-620 -19 c7 5 -15
-84 -24 -92 -2 -2 -5 6 -8 19 -5 27 12 99 19 80 3 -6 8 -10 13 -7z m-950 -37
c0 -4 -35 -8 -77 -8 -112 0 -218 -31 -267 -78 -21 -20 -49 -55 -63 -77 -13
-22 -22 -32 -19 -22 3 10 6 30 6 43 0 16 17 43 46 74 37 40 58 52 117 71 95
30 216 40 240 20 9 -8 17 -18 17 -23z m1427 -50 c-3 -7 -5 -2 -5 12 0 14 2 19
5 13 2 -7 2 -19 0 -25z m-531 -64 c-2 -42 -8 -79 -11 -82 -4 -4 -5 29 -2 73 7
95 6 85 13 85 3 0 3 -34 0 -76z m-948 54 c13 -13 17 -32 4 -24 -4 2 -46 -6
-94 -18 -82 -21 -86 -21 -97 -4 -9 15 -8 20 11 27 73 28 158 37 176 19z m94
-6 c-1 -8 2 -11 7 -8 5 4 12 2 16 -4 12 -19 -52 -10 -69 9 -17 19 -16 19 16
18 21 -2 32 -7 30 -15z m1373 -42 c-9 -41 -17 -33 -9 9 4 17 9 30 11 27 3 -2
2 -19 -2 -36z m-1691 -47 c-19 -19 -46 -53 -61 -76 -28 -45 -39 -38 -28 19 4
22 23 52 51 82 43 44 46 46 59 29 12 -17 10 -23 -21 -54z m-193 16 c-5 -13
-10 -19 -10 -12 -1 15 10 45 15 40 3 -2 0 -15 -5 -28z m2362 -36 c-7 -2 -19
-2 -25 0 -7 3 -2 5 12 5 14 0 19 -2 13 -5z m-33 -58 c14 -19 14 -19 -2 -6 -10
7 -18 18 -18 24 0 6 1 8 3 6 1 -2 9 -13 17 -24z m-2296 -43 c-4 -9 -8 -20 -8
-24 -1 -3 -4 -10 -8 -14 -5 -4 -8 -17 -8 -29 0 -12 -9 -32 -20 -45 -27 -31
-25 -20 10 80 17 47 31 87 31 90 1 3 4 -5 6 -18 3 -13 1 -31 -3 -40z m-82 26
c-7 -7 -12 -8 -12 -2 0 6 3 14 7 17 3 4 9 5 12 2 2 -3 -1 -11 -7 -17z m2524
-19 c61 -32 94 -56 94 -70 0 -5 -16 2 -35 16 -20 13 -57 32 -83 41 -26 10 -58
24 -72 31 l-25 13 31 0 c18 0 58 -14 90 -31z m-2116 -4 c0 -12 -19 -12 -23 0
-4 9 -1 12 9 8 7 -3 14 -7 14 -8z m2045 -47 c47 6 145 -44 145 -74 0 -10 -9
-8 -32 5 -18 11 -60 27 -93 36 -56 16 -105 47 -105 67 0 5 15 -1 32 -14 18
-12 42 -21 53 -20z m-3170 -11 c0 -9 -3 -17 -7 -17 -5 0 -17 0 -28 0 -14 0
-20 7 -20 24 0 22 3 23 28 17 16 -4 27 -14 27 -24z m863 -2 c-1 -19 -6 -35
-11 -35 -5 0 -6 -7 -3 -16 3 -9 -3 -29 -15 -45 l-20 -29 26 -10 c14 -5 36 -10
48 -10 37 0 121 -45 153 -82 48 -54 57 -110 45 -267 -7 -102 -15 -142 -31
-174 -52 -101 -117 -136 -282 -150 -111 -10 -117 -12 -123 -35 -3 -14 0 -34
10 -48 16 -25 22 -158 7 -181 -4 -7 -51 -14 -122 -18 -63 -3 -145 -8 -181 -11
l-65 -5 4 87 c4 67 9 91 23 105 11 11 19 27 20 37 0 9 2 37 3 62 2 25 6 136
11 248 7 179 6 204 -8 220 -14 15 -15 33 -10 105 l6 86 41 5 c53 7 303 20 336
18 40 -3 91 8 85 18 -7 11 41 160 52 160 2 0 3 -16 1 -35z m-1390 -7 c19 -19
15 -58 -5 -58 -16 0 -16 2 -3 11 11 8 12 12 2 16 -6 2 -10 8 -7 13 3 4 -4 6
-14 3 -11 -3 -22 -15 -24 -27 -4 -17 -5 -16 -6 6 0 16 6 31 17 37 22 13 26 13
40 -1z m640 -20 c3 -13 -3 -18 -22 -18 -20 0 -26 5 -26 21 0 15 5 20 22 17 13
-2 24 -11 26 -20z m1310 -14 c19 -5 23 -12 20 -38 -3 -27 -7 -31 -33 -31 -19
0 -29 5 -27 13 1 6 -2 12 -7 12 -8 0 -21 -55 -21 -92 0 -26 18 -22 22 5 2 17
10 22 33 22 28 0 30 -3 30 -35 0 -32 -4 -36 -39 -48 -50 -16 -95 -7 -106 21
-8 21 -9 20 -9 -5 -1 -26 -4 -28 -41 -28 -31 0 -40 4 -41 18 -1 16 -2 16 -6 0
-2 -10 -11 -18 -19 -18 -8 0 -14 8 -15 18 0 13 -2 12 -9 -5 -7 -17 -18 -23
-38 -23 l-29 0 5 98 c2 53 6 99 8 101 2 2 20 4 41 5 34 1 38 -2 44 -29 l6 -30
13 33 c11 28 16 32 50 32 l37 0 -2 -67 -3 -68 7 58 c8 80 46 103 129 81z
m-1520 -28 c5 -25 -12 -39 -37 -31 -14 4 -21 15 -21 30 0 20 5 23 27 22 18 -2
29 -9 31 -21z m3482 14 c8 -5 11 -10 5 -10 -5 0 -17 5 -25 10 -8 5 -10 10 -5
10 6 0 17 -5 25 -10z m-3290 -4 c0 -3 -4 -8 -10 -11 -5 -3 -10 -1 -10 4 0 6 5
11 10 11 6 0 10 -2 10 -4z m557 -38 c-3 -8 -6 -5 -6 6 -1 11 2 17 5 13 3 -3 4
-12 1 -19z m1215 -70 c-3 -58 -10 -90 -23 -108 -15 -21 -20 -64 -30 -292 -11
-242 -11 -269 3 -285 13 -15 15 -33 11 -100 l-6 -81 -86 -6 c-47 -3 -130 -8
-185 -12 l-99 -6 5 80 c3 48 10 88 19 98 9 11 15 51 17 121 l4 104 -48 -3 -49
-3 -3 -104 c-1 -58 2 -108 7 -115 6 -7 7 -45 3 -96 l-7 -84 -35 -2 c-19 -1
-99 -5 -177 -9 l-143 -6 0 79 c0 67 4 84 22 107 20 26 23 45 34 284 9 205 9
262 -1 287 l-13 31 121 7 c66 3 144 6 173 6 52 0 53 -1 44 -24 -5 -13 -10 -57
-11 -97 l-2 -74 39 2 c21 1 44 5 51 7 17 7 18 172 2 182 -12 7 -7 159 5 171 3
3 68 8 145 12 76 3 157 7 178 9 l40 3 -5 -83z m-1955 40 c-3 -8 -6 -5 -6 6 -1
11 2 17 5 13 3 -3 4 -12 1 -19z m113 -23 c0 -8 6 -12 13 -9 27 10 17 -43 -13
-66 l-29 -22 20 -51 c11 -29 16 -54 11 -59 -5 -5 -9 -3 -9 4 -1 7 -10 40 -22
72 -12 33 -21 79 -21 103 0 39 2 43 25 43 15 0 25 -6 25 -15z m3430 -6 c0 -11
-4 -17 -10 -14 -5 3 -10 13 -10 21 0 8 5 14 10 14 6 0 10 -9 10 -21z m-3324
-14 c8 -21 -6 -41 -17 -24 -12 19 -11 39 1 39 6 0 13 -7 16 -15z m3289 -38
c20 -31 47 -125 40 -137 -3 -6 -1 -10 5 -10 6 0 8 -4 5 -10 -13 -22 -23 -8
-27 40 -3 31 -15 64 -32 88 -14 21 -26 41 -26 45 0 15 20 6 35 -16z m-3469
-30 c12 -36 12 -37 -14 -51 -15 -8 -26 -18 -24 -23 2 -4 -3 -9 -11 -11 -10 -2
-16 11 -19 45 -3 26 -9 55 -12 64 -6 13 0 16 30 15 34 -2 39 -5 50 -39z m3027
-14 c-5 -12 -7 -12 -14 -1 -7 10 -9 9 -9 -4 0 -9 4 -18 10 -20 5 -1 7 -13 4
-25 -7 -26 -44 -32 -44 -8 0 9 6 12 18 9 10 -4 13 -3 6 3 -7 4 -14 17 -16 28
-4 14 -7 7 -13 -21 -6 -33 -11 -40 -28 -39 -12 1 -21 5 -20 8 1 4 4 26 8 48 7
38 9 41 36 37 17 -3 32 -1 35 3 8 14 33 -2 27 -18z m-589 2 c-4 -8 -10 -13
-14 -10 -5 3 -11 1 -15 -5 -3 -5 -1 -10 6 -10 10 0 10 -3 1 -12 -15 -15 -16
-32 -2 -23 6 3 10 1 10 -4 0 -6 -2 -11 -4 -11 -2 0 -12 -3 -22 -7 -15 -6 -16
-1 -11 38 5 40 4 42 -9 25 -10 -15 -14 -16 -15 -5 0 8 -5 1 -10 -15 -4 -17 -6
-32 -4 -35 3 -2 5 1 5 7 0 7 5 12 10 12 6 0 10 -7 10 -15 0 -9 -10 -15 -26
-15 -21 0 -25 4 -19 18 3 9 9 29 12 44 4 21 12 28 37 31 63 8 66 7 60 -8z m36
-7 c8 -21 9 -21 9 -3 1 17 9 21 56 23 l54 3 -10 -31 c-6 -17 -9 -39 -6 -50 4
-15 0 -20 -14 -20 -16 0 -17 4 -9 26 6 14 10 34 10 45 0 18 -2 19 -15 5 -8 -8
-18 -29 -21 -45 -4 -17 -11 -31 -16 -31 -5 0 -6 15 -3 34 4 18 2 36 -3 40 -5
3 -12 -12 -16 -34 -7 -43 -25 -55 -27 -17 l-2 22 -4 -22 c-4 -20 -23 -34 -23
-17 0 13 23 94 27 94 2 0 8 -10 13 -22z m148 -3 c-6 -31 0 -32 11 -2 7 18 17
23 46 24 26 1 35 -3 31 -12 -3 -8 -8 -30 -12 -49 -3 -20 -11 -36 -16 -36 -5 0
-6 10 -3 21 5 15 4 19 -4 15 -6 -4 -11 -14 -11 -22 0 -8 -5 -14 -11 -14 -6 0
-8 8 -5 18 3 9 7 31 10 47 4 23 1 19 -16 -17 -22 -49 -56 -68 -44 -25 3 12 6
34 6 50 0 15 5 27 11 27 7 0 9 -10 7 -25z m122 3 l9 -23 0 23 c1 12 6 22 11
22 10 0 8 -17 -10 -80 l-8 -25 -10 25 c-10 24 -11 24 -11 3 -1 -13 -5 -23 -11
-23 -5 0 -10 3 -10 6 0 13 23 94 27 94 2 0 8 -10 13 -22z m135 -11 c-12 -61
-15 -65 -36 -60 -16 5 -19 11 -14 42 l5 36 -17 -43 c-19 -47 -50 -55 -46 -12
7 66 10 69 64 68 l50 0 -6 -31z m-3061 7 c10 -26 7 -34 -13 -34 -23 0 -35 15
-27 35 7 20 32 19 40 -1z m2448 4 c-7 -7 -12 -27 -12 -45 0 -21 -5 -33 -14
-33 -11 0 -11 9 -3 45 7 29 16 45 26 45 12 0 12 -3 3 -12z m39 -5 c1 -17 2
-17 6 0 7 29 24 19 17 -10 -15 -69 -15 -69 -30 -48 -12 17 -14 17 -14 2 0 -9
-4 -17 -9 -17 -5 0 -5 16 0 38 5 20 9 40 9 45 0 15 20 6 21 -10z m-2461 -64
c0 -5 -4 -9 -10 -9 -5 0 -10 7 -10 16 0 8 5 12 10 9 6 -3 10 -10 10 -16z m-40
-9 c0 -5 -4 -10 -10 -10 -5 0 -10 5 -10 10 0 6 5 10 10 10 6 0 10 -4 10 -10z
m3770 -20 c6 -11 7 -20 2 -20 -6 0 -12 9 -15 20 -3 11 -3 20 -1 20 2 0 8 -9
14 -20z m-1230 -16 c0 -11 -5 -14 -16 -10 -13 5 -15 2 -11 -14 3 -11 1 -20 -4
-20 -5 0 -9 -7 -9 -16 0 -14 2 -15 17 -3 14 12 16 12 11 -1 -2 -8 -14 -16 -25
-18 -19 -3 -21 1 -18 40 l4 43 -11 -42 c-6 -24 -15 -43 -20 -43 -6 0 -8 7 -4
15 3 9 0 15 -8 15 -8 0 -16 -10 -19 -22 -11 -40 -18 -12 -8 31 10 47 21 63 28
43 3 -8 9 -10 16 -3 7 5 26 11 42 14 17 2 31 5 33 6 1 0 2 -6 2 -15z m263 -7
c-4 -12 -7 -34 -8 -49 0 -26 -3 -28 -42 -28 -24 0 -43 3 -43 8 0 4 9 22 20 40
l20 32 -25 -16 c-15 -10 -25 -26 -25 -40 0 -27 -19 -33 -21 -6 -1 16 -2 16 -6
0 -8 -32 -19 -19 -16 20 l2 37 -10 -37 c-8 -27 -17 -38 -30 -38 -20 0 -23 10
-13 58 7 35 10 36 122 39 81 2 83 1 75 -20z m55 3 l11 25 1 -25 c1 -25 1 -25
10 -2 12 27 24 29 17 2 -3 -11 -1 -20 4 -20 5 0 9 9 9 20 0 11 5 20 11 20 11
0 5 -44 -12 -85 -7 -17 -8 -16 -9 10 l-2 30 -11 -30 -11 -30 -7 25 c-7 24 -7
24 -8 3 -1 -13 -5 -23 -11 -23 -5 0 -10 10 -11 23 0 21 -1 21 -11 -3 -16 -38
-21 -8 -7 42 11 40 13 41 19 18 l7 -25 11 25z m129 6 c-3 -8 -9 -31 -13 -50
-4 -25 -12 -36 -23 -36 -27 0 -29 7 -18 55 9 38 14 45 35 45 17 0 22 -4 19
-14z m53 5 c0 -15 -18 -22 -22 -9 -3 8 -7 6 -11 -5 -4 -12 -1 -17 9 -17 11 0
14 -6 10 -16 -3 -9 -6 -22 -6 -30 0 -8 -9 -14 -20 -14 -11 0 -20 7 -20 15 0 8
8 15 18 15 13 0 14 2 3 9 -21 13 -6 61 19 61 11 0 20 -4 20 -9z m-470 -18 c0
-15 2 -14 15 3 14 18 15 16 9 -21 -7 -43 -24 -72 -24 -40 0 18 0 18 -15 -1
-12 -16 -14 -16 -15 -3 0 31 13 79 21 79 5 0 9 -8 9 -17z m-2523 -25 c0 -13
-1 -17 -4 -10 -3 6 -12 12 -21 12 -15 0 -15 2 -2 10 22 14 26 12 27 -12z
m3620 -35 c3 -9 -8 -10 -35 -4 -2 1 0 6 3 12 8 12 27 7 32 -8z m-1477 -73 c0
-5 -4 -10 -10 -10 -5 0 -10 5 -10 10 0 6 5 10 10 10 6 0 10 -4 10 -10z m485
-39 c3 -6 28 -7 57 -4 42 5 50 4 43 -8 -5 -7 -11 -29 -15 -49 -6 -40 -36 -53
-57 -24 -12 16 -13 16 -13 1 0 -9 -4 -17 -9 -17 -5 0 -6 20 -3 45 3 31 1 45
-7 45 -7 0 -9 -4 -6 -10 3 -5 3 -25 -1 -45 -4 -25 -11 -35 -25 -35 -22 0 -26
38 -9 71 7 13 7 19 0 19 -5 0 -15 -20 -21 -45 -6 -25 -15 -42 -19 -40 -5 3 -4
20 1 38 5 17 9 33 9 34 0 1 -7 0 -15 -3 -9 -4 -15 -1 -15 7 0 10 -2 11 -12 0
-11 -10 -10 -14 3 -21 11 -6 15 -18 11 -35 -4 -22 -9 -25 -48 -25 -43 0 -43 1
-34 26 6 14 10 36 10 50 0 14 6 24 14 24 12 0 13 -7 5 -32 -14 -49 -12 -63 5
-49 11 9 15 9 19 -1 4 -9 6 -7 6 4 1 9 -4 18 -10 20 -7 2 -7 12 0 30 9 24 16
27 63 31 29 2 56 4 60 5 4 1 9 -2 13 -7z m445 -20 c1 -14 2 -14 14 2 21 27 27
20 20 -20 -9 -53 -16 -60 -27 -32 l-9 24 -9 -22 c-14 -36 -21 -27 -15 20 l5
42 -11 -42 c-6 -24 -15 -43 -20 -43 -6 0 -8 7 -4 15 3 8 1 15 -4 15 -6 0 -10
-7 -10 -15 0 -8 -4 -15 -10 -15 -20 0 7 88 28 92 28 6 52 -3 52 -21z m153 7
c-1 -7 -6 -29 -11 -48 -7 -32 -9 -34 -20 -15 -10 17 -11 18 -12 3 0 -10 -4
-18 -9 -18 -4 0 -5 18 -1 40 4 22 4 37 0 35 -4 -3 -11 -21 -14 -40 -5 -27 -12
-35 -28 -35 -19 0 -20 4 -14 42 4 23 12 45 18 49 20 12 93 2 91 -13z m-439
-25 c-9 -52 -23 -76 -24 -43 l-1 25 -15 -25 c-15 -24 -15 -24 -9 20 6 44 17
60 43 60 9 0 11 -10 6 -37z m161 27 c-3 -5 -12 -7 -20 -3 -9 3 -15 -1 -15 -11
0 -9 6 -16 13 -17 10 0 10 -2 0 -6 -7 -2 -13 -12 -13 -21 0 -15 2 -15 10 -2 8
13 10 12 10 -2 0 -12 -8 -18 -21 -18 -18 0 -21 5 -17 35 5 40 -2 37 -18 -8 -6
-18 -19 -34 -29 -36 -16 -3 -17 2 -11 40 4 24 12 47 19 51 18 11 99 10 92 -2z
m-539 -15 c-3 -8 -1 -15 4 -15 6 0 10 7 10 15 0 8 5 15 11 15 6 0 8 -8 5 -17
-3 -10 -8 -30 -12 -45 -3 -16 -10 -28 -16 -28 -5 0 -7 10 -3 23 5 20 5 20 -9
-3 l-15 -25 -1 25 c0 36 11 70 22 70 6 0 8 -7 4 -15z m54 -177 c0 -7 -3 -30
-6 -50 -6 -32 -11 -38 -30 -38 -25 0 -26 11 -8 68 2 6 -1 12 -5 12 -5 0 -12
-18 -16 -40 -4 -22 -11 -40 -16 -40 -8 0 -5 29 7 68 2 7 -1 10 -6 7 -6 -3 -10
1 -10 9 0 12 11 16 45 16 29 0 45 -4 45 -12z m77 -18 c3 0 12 8 20 18 12 15
13 12 7 -28 -8 -59 -15 -69 -27 -39 l-9 24 -10 -25 c-16 -38 -21 -7 -7 42 8
26 14 36 16 26 3 -10 7 -18 10 -18z m60 -17 c-6 -46 -5 -46 5 -13 18 62 20 66
25 53 2 -6 -1 -30 -7 -52 -8 -31 -16 -41 -31 -41 -18 0 -20 4 -14 33 16 81 30
94 22 20z m168 25 c-7 -54 -18 -78 -36 -78 -30 0 -21 75 10 83 11 3 10 5 -5 6
-18 1 -24 -8 -33 -44 -13 -52 -26 -60 -19 -13 3 20 0 38 -8 46 -14 14 -18 1
-17 -60 0 -11 -8 -18 -21 -18 -15 0 -17 3 -8 12 7 7 12 29 12 50 l0 38 64 0
c61 0 64 -1 61 -22z m150 12 c-4 -6 -10 -8 -15 -5 -4 3 -10 -2 -14 -10 -3 -8
0 -15 7 -16 9 0 9 -2 0 -6 -7 -2 -13 -12 -13 -21 0 -15 2 -15 10 -2 7 11 10
11 10 2 0 -26 18 -2 24 33 4 19 11 35 16 35 5 0 8 -6 6 -12 -3 -7 -7 -26 -10
-43 -5 -22 -4 -26 4 -15 9 13 11 13 20 0 8 -12 10 -8 11 15 1 17 2 36 2 43 -1
6 8 12 19 12 16 0 18 -3 10 -13 -6 -7 -12 -28 -14 -45 -1 -18 -5 -32 -8 -33
-3 -1 -31 -2 -64 -3 l-58 -2 5 38 c3 21 1 36 -3 33 -5 -3 -11 1 -14 7 -3 7 -5
4 -4 -7 1 -22 -18 -75 -28 -75 -6 0 5 79 13 93 2 4 24 7 49 7 28 0 43 -4 39
-10z m141 -12 c-9 -12 -13 -31 -10 -43 4 -17 0 -24 -15 -28 -16 -4 -21 0 -21
13 0 11 5 22 10 25 6 3 7 17 4 31 -5 21 -3 24 20 24 26 0 26 -1 12 -22z
m-1426 -8 c0 -5 -7 -10 -15 -10 -8 0 -15 5 -15 10 0 6 7 10 15 10 8 0 15 -4
15 -10z m1855 -160 c-3 -5 -12 -10 -18 -10 -7 0 -6 4 3 10 19 12 23 12 15 0z
m-308 -32 c-2 -7 -10 -12 -17 -10 -8 2 -11 -4 -7 -18 3 -11 1 -20 -4 -20 -5 0
-9 -8 -9 -17 0 -15 2 -16 10 -3 8 13 11 13 19 1 6 -10 11 -2 16 28 4 22 11 41
16 41 11 0 11 -7 0 -48 -5 -17 -6 -32 -2 -32 5 0 11 18 15 40 3 22 11 40 17
40 6 0 8 -8 5 -17 -3 -10 -8 -30 -11 -45 -6 -25 -11 -27 -56 -26 -39 1 -49 5
-44 16 3 7 5 26 5 42 0 26 9 34 43 39 5 0 7 -5 4 -11z m163 6 c0 -3 -5 -25
-11 -50 -11 -44 -31 -63 -23 -21 l5 22 -12 -22 c-19 -37 -27 -26 -16 22 9 39
18 49 50 54 4 0 7 -2 7 -5z m46 -6 c19 26 23 12 11 -40 -12 -49 -27 -64 -27
-28 0 11 -4 20 -10 20 -5 0 -10 -9 -10 -20 0 -11 -4 -20 -10 -20 -13 0 -12 1
2 58 9 37 13 43 22 30 9 -15 11 -15 22 0z m69 -30 c-9 -54 -12 -58 -36 -58
-18 0 -20 4 -14 33 12 59 16 67 37 67 18 0 19 -4 13 -42z m-968 18 c-3 -6 -10
-10 -17 -8 -8 2 -11 -4 -7 -18 3 -11 1 -20 -4 -20 -5 0 -9 -7 -9 -16 0 -14 3
-14 15 -4 9 7 15 8 15 2 0 -9 -23 -22 -40 -22 -5 0 -6 17 -4 38 4 28 3 33 -5
22 -6 -8 -11 -25 -11 -37 0 -27 -19 -31 -21 -5 -1 16 -2 16 -6 0 -2 -10 -9
-18 -15 -18 -5 0 -7 7 -4 16 3 9 6 28 6 44 0 30 8 34 78 36 19 0 31 -4 29 -10z
m58 -28 c-8 -50 -25 -74 -26 -37 l0 24 -9 -22 c-14 -35 -23 -27 -15 15 6 35
27 62 48 62 5 0 6 -19 2 -42z m31 0 c-4 -30 -3 -39 4 -28 8 13 10 12 10 -3 0
-10 5 -15 10 -12 6 3 10 24 10 46 0 28 4 39 15 39 12 0 14 -6 8 -27 -4 -16 -7
-38 -8 -50 0 -19 -5 -22 -42 -21 -24 0 -41 3 -39 7 2 3 9 25 15 49 7 23 14 42
18 42 3 0 3 -19 -1 -42z m126 32 c0 -3 -5 -24 -12 -47 -10 -32 -18 -43 -33
-43 -17 0 -19 5 -13 31 3 17 6 37 6 45 0 16 51 30 52 14z m54 -32 c-8 -50 -26
-75 -27 -37 l0 24 -10 -24 c-13 -34 -23 -19 -15 23 6 32 27 55 50 56 5 0 6
-19 2 -42z m119 32 c-3 -6 -13 -10 -21 -10 -8 0 -14 -4 -14 -10 0 -5 5 -10 11
-10 6 0 3 -7 -6 -16 -9 -9 -13 -19 -10 -22 3 -4 10 0 15 8 8 13 10 13 10 -1 0
-16 -33 -32 -44 -22 -2 2 0 18 5 36 5 17 7 33 4 35 -4 4 -11 -12 -30 -65 -2
-7 -12 -13 -21 -13 -14 0 -15 7 -10 42 4 23 12 45 18 49 17 11 99 9 93 -1z
m91 -21 c-3 -17 -6 -39 -6 -49 0 -12 -8 -17 -26 -17 -24 0 -25 1 -19 41 9 52
12 56 37 56 18 0 20 -4 14 -31z m30 -11 l-5 -43 11 43 c13 52 31 56 22 5 -8
-44 -20 -63 -42 -63 -12 0 -13 8 -8 42 4 22 9 45 12 50 12 18 15 6 10 -34z
m89 32 c-4 -6 -10 -8 -15 -5 -5 3 -12 0 -16 -6 -3 -6 0 -15 7 -20 10 -6 11 -9
2 -9 -7 0 -13 -8 -13 -17 0 -15 2 -16 10 -3 8 13 10 13 10 -1 0 -9 -9 -19 -20
-22 -22 -6 -25 7 -14 62 5 24 12 31 31 31 14 0 21 -4 18 -10z m-1932 -7 c-7
-2 -21 -2 -30 0 -10 3 -4 5 12 5 17 0 24 -2 18 -5z m56 -47 c-3 -3 -11 5 -18
17 -13 21 -12 21 5 5 10 -10 16 -20 13 -22z m-232 -133 c-3 -10 -5 -4 -5 12 0
17 2 24 5 18 2 -7 2 -21 0 -30z m836 -18 c-3 -9 -8 -14 -10 -11 -3 3 -2 9 2
15 9 16 15 13 8 -4z m-390 -15 c-3 -12 -8 -19 -11 -16 -5 6 5 36 12 36 2 0 2
-9 -1 -20z m148 -3 c-10 -9 -11 -8 -5 6 3 10 9 15 12 12 3 -3 0 -11 -7 -18z
m-378 -7 c-3 -12 -8 -19 -11 -16 -5 6 5 36 12 36 2 0 2 -9 -1 -20z m-195 -25
c-3 -3 -9 2 -12 12 -6 14 -5 15 5 6 7 -7 10 -15 7 -18z m-102 -22 c-8 -15 -15
-25 -16 -21 0 12 23 58 27 54 3 -2 -2 -17 -11 -33z m671 -300 c-3 -10 -5 -4
-5 12 0 17 2 24 5 18 2 -7 2 -21 0 -30z m-1279 -32 c-9 -41 -13 -48 -29 -44
-21 6 -22 14 -13 61 6 27 27 44 45 36 3 -2 2 -26 -3 -53z m132 49 c0 -6 -7
-13 -15 -16 -8 -4 -15 -18 -15 -33 0 -14 -5 -33 -10 -41 -6 -10 -9 1 -7 37 2
50 6 57 40 62 4 0 7 -4 7 -9z m150 -7 c0 -10 -3 -34 -6 -54 -5 -30 -10 -36
-25 -32 -24 7 -26 55 -3 77 17 17 14 19 -10 10 -9 -3 -18 -24 -22 -50 -3 -24
-10 -42 -14 -39 -4 2 -4 22 0 44 10 55 -14 44 -27 -12 -9 -37 -11 -38 -12 -12
-1 31 -15 25 -24 -10 -3 -14 -5 -11 -6 10 -2 73 9 82 97 84 43 1 52 -2 52 -16z
m110 8 c0 -23 -21 -62 -30 -56 -5 3 -10 -3 -10 -14 0 -12 -5 -21 -11 -21 -8 0
-9 11 -5 31 3 17 6 37 6 45 0 11 14 18 43 23 4 0 7 -3 7 -8z m54 -38 c-7 -53
-24 -82 -24 -42 l-1 24 -14 -25 c-16 -28 -18 -16 -9 42 6 33 14 42 46 47 4 0
5 -20 2 -46z m70 18 c-4 -9 -10 -32 -14 -51 -7 -35 -7 -35 -18 -10 -11 25 -11
25 -11 2 -1 -13 -4 -21 -9 -18 -4 2 -6 25 -4 50 3 37 8 46 25 48 30 5 40 -1
31 -21z m59 22 c2 -5 -2 -30 -9 -58 -7 -27 -13 -40 -13 -27 -1 28 -21 29 -21
1 0 -11 -4 -18 -9 -15 -12 8 4 87 20 97 17 11 27 11 32 2z m91 1 c9 -3 14 -10
11 -15 -3 -4 -12 -6 -20 -2 -9 3 -15 -1 -15 -11 0 -9 6 -16 13 -16 9 0 12 -10
9 -30 -2 -16 -6 -30 -7 -30 -13 0 -35 14 -35 22 0 5 4 7 9 3 5 -3 12 -1 15 4
3 5 -1 11 -9 15 -8 3 -12 12 -10 21 3 8 7 22 10 30 5 17 7 17 29 9z m120 -52
c-5 -35 -10 -42 -29 -42 -21 0 -22 3 -15 41 14 74 56 74 44 1z m129 30 c-4
-10 -8 -12 -11 -4 -2 7 -8 10 -13 6 -14 -8 -10 -24 6 -24 12 0 14 -7 9 -27 -4
-16 -8 -29 -9 -31 -5 -6 -35 11 -35 20 0 6 7 8 15 4 8 -3 15 -1 15 4 0 6 -4
10 -10 10 -5 0 -11 12 -11 28 -1 22 -3 19 -12 -15 -9 -40 -27 -59 -27 -30 -1
7 -6 5 -14 -5 -18 -24 -22 -17 -18 36 4 49 16 60 25 25 6 -23 27 -17 27 8 0 9
6 13 15 10 8 -4 17 -2 20 3 10 16 34 0 28 -18z m1477 13 c0 -9 -6 -12 -15 -9
-8 4 -15 1 -15 -5 0 -6 4 -11 9 -11 5 0 3 -13 -5 -30 -9 -16 -18 -30 -21 -30
-9 0 9 85 21 92 17 12 26 9 26 -7z m56 -16 c-3 -17 -6 -40 -6 -50 0 -11 -5
-19 -11 -19 -6 0 -9 9 -6 20 3 11 1 20 -4 20 -5 0 -9 -9 -9 -20 0 -11 -4 -20
-10 -20 -15 0 -1 73 18 88 26 20 35 14 28 -19z m29 -23 c-4 -25 -12 -46 -17
-46 -9 0 -5 34 9 83 9 34 15 9 8 -37z m85 35 c0 -32 -12 -81 -20 -81 -5 0 -6
10 -2 22 3 14 2 19 -6 14 -7 -4 -12 -14 -12 -22 0 -16 -9 -18 -30 -4 -8 5 -11
12 -7 17 5 4 12 1 17 -7 7 -11 10 -7 10 17 0 30 21 63 41 63 5 0 9 -8 9 -19z
m60 -19 c-5 -15 -11 -36 -13 -47 -4 -18 -6 -18 -13 5 l-8 25 -7 -25 c-5 -19
-7 -14 -8 22 -1 41 2 47 22 50 32 6 37 1 27 -30z m93 25 c-2 -4 -3 -13 -3 -19
0 -10 -3 -9 -9 1 -6 10 -11 5 -16 -18 -4 -18 -4 -35 -1 -38 3 -4 6 -1 6 5 0 7
4 12 10 12 5 0 7 -7 4 -15 -9 -22 -47 -20 -40 3 2 9 7 31 11 49 4 22 11 30 23
29 9 -2 16 -6 15 -9z m87 -5 c0 -12 4 -11 22 4 21 19 21 19 15 -6 -4 -14 -7
-37 -7 -52 0 -34 -15 -37 -24 -5 l-7 22 -9 -22 c-15 -36 -22 -27 -16 20 l5 42
-11 -42 c-8 -33 -16 -43 -31 -43 -17 0 -19 5 -13 38 3 20 6 42 6 49 0 8 13 12
35 11 24 -1 35 -6 35 -16z m140 -12 c-5 -10 -10 -31 -10 -45 0 -22 -4 -26 -22
-23 -13 2 -22 6 -20 11 1 4 2 21 2 37 0 23 6 33 23 39 29 11 39 4 27 -19z m61
-8 c-6 -11 -12 -31 -12 -44 -1 -17 -3 -18 -6 -5 -2 9 -8 17 -13 17 -5 0 -11
-8 -13 -17 -3 -10 -5 -2 -6 17 -1 39 6 54 29 62 23 8 33 -7 21 -30z m34 15
c-12 -40 -14 -67 -5 -67 5 0 10 12 11 28 0 15 4 36 9 47 8 20 9 19 9 -1 2 -49
-11 -84 -32 -84 -17 0 -19 5 -13 38 3 20 6 43 6 50 0 7 4 11 10 7 5 -3 7 -11
5 -18z m66 -17 c5 0 9 10 9 22 0 12 3 19 6 15 4 -3 3 -28 -1 -54 -7 -47 -7
-47 -21 -23 -13 25 -13 25 -14 3 0 -13 -5 -23 -10 -23 -10 0 -8 16 7 78 6 25
7 25 10 5 3 -13 9 -23 14 -23z m55 24 c-3 -9 -6 -31 -6 -50 0 -23 -5 -34 -14
-34 -12 0 -12 7 -4 36 5 20 7 42 4 50 -3 8 1 14 10 14 11 0 14 -6 10 -16z
m122 -36 c-11 -50 -18 -60 -18 -27 l-1 24 -14 -25 c-10 -17 -14 -20 -15 -9 0
30 12 79 21 79 5 0 6 -7 3 -15 -4 -8 -1 -15 5 -15 6 0 11 9 11 21 0 11 4 18 9
15 5 -4 5 -23 -1 -48z m62 40 c-1 -50 -14 -88 -31 -88 -20 0 -23 16 -13 69 5
21 12 31 25 31 11 0 19 -6 19 -12z m-3398 -20 c-5 -21 -6 -21 -13 -2 -5 13 -8
14 -8 4 -1 -8 -4 -26 -7 -40 -4 -19 -3 -22 5 -10 5 8 13 12 16 8 9 -8 -25 -39
-36 -32 -8 5 -6 26 8 77 2 9 13 17 23 17 14 0 17 -5 12 -22z m108 0 c0 12 4
22 9 22 11 0 3 -66 -10 -90 -7 -12 -8 -10 -9 8 0 12 -4 22 -9 22 -5 0 -12 -10
-14 -22 -3 -18 -5 -16 -6 7 0 17 2 41 6 54 l6 23 13 -23 13 -24 1 23z m666 2
c9 17 13 20 14 9 0 -29 -12 -79 -20 -79 -5 0 -6 9 -3 20 3 11 0 20 -6 20 -6 0
-11 -9 -11 -20 0 -11 -4 -20 -9 -20 -9 0 -8 10 5 65 7 29 8 29 12 5 l4 -24 14
24z m2485 -2 l2 -23 4 23 c2 12 9 22 15 22 6 0 8 -10 4 -22 -3 -13 -6 -33 -6
-45 0 -13 -4 -23 -10 -23 -5 0 -10 10 -10 23 -1 22 -1 22 -15 -3 -16 -28 -19
-14 -9 39 7 36 23 41 25 9z m-1534 -50 c-3 -8 -6 -5 -6 6 -1 11 2 17 5 13 3
-3 4 -12 1 -19z m100 -279 c-3 -11 -1 -19 4 -19 5 0 9 9 9 20 0 11 5 20 11 20
8 0 9 -15 4 -47 -8 -57 -25 -81 -25 -37 l-1 29 -14 -30 -15 -30 3 50 c3 43 3
46 -6 23 -6 -16 -17 -28 -24 -28 -8 0 -18 -10 -23 -22 -7 -19 -9 -16 -9 19 -1
61 4 69 50 70 35 1 40 -2 36 -18z m163 10 c0 -6 -7 -8 -16 -5 -13 5 -15 1 -12
-19 3 -14 1 -25 -3 -25 -5 0 -9 -7 -9 -15 0 -18 16 -20 23 -2 3 7 6 5 6 -5 1
-10 -3 -18 -8 -18 -5 0 -17 -3 -26 -6 -15 -6 -16 -1 -11 42 6 48 6 49 -10 21
-8 -15 -12 -37 -9 -47 4 -12 2 -20 -4 -20 -6 0 -11 9 -11 20 0 11 -4 20 -10
20 -5 0 -10 -9 -10 -21 0 -11 -3 -18 -7 -16 -5 3 -7 27 -5 54 l4 48 59 2 c38
2 59 -1 59 -8z m64 -31 c-8 -52 -23 -85 -24 -50 0 12 -4 22 -10 22 -5 0 -10
-9 -10 -20 0 -11 -5 -20 -10 -20 -14 0 -1 93 14 102 6 4 19 8 29 8 15 0 16 -6
11 -42z m34 -3 c-5 -38 -3 -44 8 -34 11 9 14 7 15 -7 0 -15 2 -13 10 6 6 14 9
37 6 53 -3 20 1 27 14 27 14 0 16 -5 8 -37 -4 -21 -6 -46 -3 -55 4 -15 -1 -17
-40 -16 l-46 2 6 36 c13 81 30 100 22 25z m142 35 c0 -5 -5 -30 -12 -55 -9
-32 -17 -45 -30 -45 -14 0 -18 8 -18 39 0 41 20 71 46 71 8 0 14 -4 14 -10z
m64 -32 c-8 -52 -23 -85 -24 -50 0 12 -4 22 -10 22 -5 0 -10 -9 -10 -20 0 -11
-4 -20 -10 -20 -8 0 -7 37 2 82 4 17 19 28 41 28 15 0 16 -6 11 -42z m130 27
c-3 -7 -12 -11 -20 -8 -17 6 -19 -13 -1 -21 10 -5 10 -7 0 -12 -7 -3 -13 -13
-12 -22 0 -11 2 -12 6 -4 7 17 23 15 23 -3 0 -8 -4 -15 -9 -15 -5 0 -16 -3
-25 -6 -13 -5 -16 2 -17 42 l-1 49 -16 -47 c-11 -36 -21 -48 -35 -48 -17 0
-19 5 -13 38 3 20 6 44 6 53 0 12 13 15 60 17 47 1 58 -1 54 -13z"/>
<path d="M1413 4614 l-28 -25 33 16 c17 8 32 20 32 25 0 15 -6 12 -37 -16z"/>
<path d="M1512 4573 c-2 -27 -5 -56 -8 -65 -8 -28 12 -21 40 13 30 35 33 61
10 83 -28 28 -40 19 -42 -31z"/>
<path d="M1465 4600 c-4 -6 -13 -9 -20 -6 -8 3 -15 -7 -19 -26 -11 -54 -9 -59
19 -46 17 7 27 22 31 45 7 35 1 52 -11 33z"/>
<path d="M1374 4544 c-4 -14 -2 -30 5 -37 8 -8 11 -1 11 26 0 43 -7 48 -16 11z"/>
<path d="M2380 4162 c11 -15 22 -36 25 -47 2 -11 9 -36 14 -55 18 -57 13 -119
-10 -151 -11 -16 -16 -29 -10 -29 24 0 46 65 45 135 0 70 -16 116 -52 158 -24
28 -34 20 -12 -11z"/>
<path d="M2307 4029 c36 -40 54 -113 23 -94 -5 3 -14 -3 -19 -14 -15 -27 -14
-31 7 -31 18 0 92 63 92 79 0 33 -21 60 -52 66 -18 3 -42 9 -53 12 -19 5 -19
4 2 -18z"/>
<path d="M1740 3994 c-74 -28 -94 -48 -85 -84 6 -21 9 -45 14 -92 1 -5 8 -8
16 -8 8 0 15 -7 15 -15 0 -8 7 -15 16 -15 14 0 14 1 0 16 -24 23 -20 37 7 23
21 -11 21 -11 7 6 -14 17 -13 17 8 11 16 -5 38 0 70 15 l47 23 -35 7 c-19 3
-26 7 -16 8 11 0 34 17 51 35 24 26 37 34 53 29 17 -4 22 -1 22 13 0 36 -17
47 -72 50 -38 2 -71 -4 -118 -22z m143 -1 c-7 -2 -19 -2 -25 0 -7 3 -2 5 12 5
14 0 19 -2 13 -5z m-103 -81 c-29 -5 -36 4 -19 24 12 14 14 14 27 -3 11 -16
11 -18 -8 -21z m-69 -46 c5 3 9 1 9 -4 0 -12 -26 -23 -33 -15 -3 3 -3 12 1 21
4 10 7 12 10 4 2 -7 8 -10 13 -6z"/>
<path d="M2702 3728 c-16 -16 -15 -35 5 -69 24 -40 43 -45 42 -11 -1 42 6 64
26 78 17 13 15 14 -21 14 -22 0 -45 -5 -52 -12z"/>
<path d="M2327 3683 c7 -21 22 -33 40 -33 7 0 10 7 7 15 -4 8 -10 12 -15 9 -5
-3 -12 2 -15 10 -3 9 -10 16 -15 16 -4 0 -5 -8 -2 -17z"/>
<path d="M2642 3645 c0 -16 2 -22 5 -12 2 9 2 23 0 30 -3 6 -5 -1 -5 -18z"/>
<path d="M2670 3651 c0 -6 4 -13 10 -16 6 -3 7 1 4 9 -7 18 -14 21 -14 7z"/>
<path d="M3030 3641 c-14 -28 -13 -29 18 -33 16 -2 31 -12 37 -25 5 -13 21
-27 35 -33 14 -5 32 -15 41 -21 9 -7 24 -9 33 -6 18 7 22 47 5 47 -6 0 -22 14
-36 30 -47 57 -113 77 -133 41z m120 -71 c0 -5 -4 -10 -10 -10 -5 0 -10 5 -10
10 0 6 5 10 10 10 6 0 10 -4 10 -10z"/>
<path d="M2382 3615 c0 -16 2 -22 5 -12 2 9 2 23 0 30 -3 6 -5 -1 -5 -18z"/>
<path d="M2346 3603 c-6 -14 -5 -15 5 -6 7 7 10 15 7 18 -3 3 -9 -2 -12 -12z"/>
<path d="M2766 3553 c-6 -14 -5 -15 5 -6 7 7 10 15 7 18 -3 3 -9 -2 -12 -12z"/>
<path d="M2381 3533 c0 -6 -4 -20 -7 -30 -5 -14 -4 -15 5 -7 7 7 11 20 8 30
-3 11 -5 14 -6 7z"/>
<path d="M3115 3530 c-3 -5 1 -13 10 -16 22 -9 29 1 11 15 -10 8 -16 9 -21 1z"/>
<path d="M3181 3481 c-8 -6 -9 -11 -3 -15 6 -3 14 -1 17 5 9 14 2 20 -14 10z"/>
<path d="M3068 3393 c-41 -16 -51 -49 -23 -73 13 -11 14 -8 9 20 -8 38 5 50
54 50 17 0 32 5 32 10 0 14 -29 12 -72 -7z"/>
<path d="M3222 3335 c0 -16 2 -22 5 -12 2 9 2 23 0 30 -3 6 -5 -1 -5 -18z"/>
<path d="M3070 3342 c0 -14 48 -54 60 -50 7 2 1 15 -16 31 -27 27 -44 34 -44
19z"/>
<path d="M2968 3280 c12 -5 29 -7 37 -3 10 3 15 1 13 -8 -2 -7 11 -17 27 -23
17 -6 36 -19 43 -29 7 -9 17 -15 21 -13 9 6 51 -79 50 -102 0 -10 -6 -5 -14
14 -9 21 -23 33 -42 38 -15 3 -50 26 -77 51 -28 25 -53 45 -57 45 -4 0 -14 3
-23 6 -28 11 -17 -15 13 -30 16 -9 48 -33 71 -56 23 -22 46 -38 51 -34 17 10
23 -28 6 -41 -27 -20 -21 -36 11 -29 54 13 77 29 80 56 3 29 -22 88 -38 88 -6
0 -18 8 -28 18 -34 34 -93 62 -130 61 -32 0 -34 -1 -14 -9z"/>
<path d="M3144 3244 c37 -36 52 -43 43 -20 -3 8 -1 17 6 19 19 7 5 15 -41 26
l-43 9 35 -34z"/>
<path d="M2118 3263 c7 -3 16 -2 19 1 4 3 -2 6 -13 5 -11 0 -14 -3 -6 -6z"/>
<path d="M3448 4019 c-21 -12 -23 -47 -3 -72 13 -18 14 -16 24 20 18 64 14 73
-21 52z"/>
<path d="M3540 4012 c0 -5 7 -15 15 -22 8 -7 15 -8 15 -2 0 5 -7 15 -15 22 -8
7 -15 8 -15 2z"/>
<path d="M3503 3983 c-7 -17 8 -48 23 -48 5 0 10 12 12 26 4 31 -25 49 -35 22z"/>
<path d="M3557 3930 c-3 -11 -1 -20 4 -20 5 0 9 2 9 4 0 2 3 11 6 20 3 9 2 16
-4 16 -5 0 -12 -9 -15 -20z"/>
<path d="M3486 3921 c-4 -5 3 -15 15 -21 28 -15 34 -7 10 14 -12 11 -21 13
-25 7z"/>
<path d="M1596 2029 c-2 -8 -7 -69 -9 -137 l-5 -123 31 6 c18 4 42 18 55 31
19 22 22 36 22 112 0 48 -4 93 -8 100 -13 19 -81 28 -86 11z"/>
<path d="M2061 2204 c0 -11 3 -14 6 -6 3 7 2 16 -1 19 -3 4 -6 -2 -5 -13z"/>
<path d="M3817 2143 c-10 -19 -18 -67 -9 -58 10 11 25 65 18 65 -3 0 -7 -3 -9
-7z"/>
<path d="M3540 2125 c0 -8 2 -15 4 -15 2 0 6 7 10 15 3 8 1 15 -4 15 -6 0 -10
-7 -10 -15z"/>
<path d="M3715 2120 c-4 -17 -5 -34 -2 -36 3 -3 8 9 12 26 4 17 5 34 2 36 -3
3 -8 -9 -12 -26z"/>
<path d="M3660 2125 c0 -8 2 -15 4 -15 2 0 6 7 10 15 3 8 1 15 -4 15 -6 0 -10
-7 -10 -15z"/>
<path d="M3422 1996 c-13 -21 -20 -41 -17 -44 3 -3 5 0 5 6 0 7 5 12 11 12 5
0 7 -4 4 -10 -3 -5 -2 -10 4 -10 13 0 24 41 19 67 -2 13 -9 9 -26 -21z"/>
<path d="M3297 2013 c-11 -19 -17 -63 -8 -63 5 0 11 15 14 33 5 33 3 45 -6 30z"/>
<path d="M3350 1999 c0 -5 5 -7 10 -4 6 3 10 8 10 11 0 2 -4 4 -10 4 -5 0 -10
-5 -10 -11z"/>
<path d="M3620 2006 c0 -8 -3 -21 -6 -30 -3 -9 -2 -16 4 -16 5 0 12 14 14 30
3 17 1 30 -4 30 -4 0 -8 -6 -8 -14z"/>
<path d="M3402 1805 c-14 -31 -15 -55 -3 -55 9 0 26 69 18 76 -2 2 -9 -7 -15
-21z"/>
<path d="M3377 1813 c-4 -3 -7 -11 -7 -17 0 -6 5 -5 12 2 6 6 9 14 7 17 -3 3
-9 2 -12 -2z"/>
<path d="M3308 1785 c-3 -14 -1 -25 3 -25 5 0 9 11 9 25 0 14 -2 25 -4 25 -2
0 -6 -11 -8 -25z"/>
<path d="M3730 1815 c0 -8 2 -15 4 -15 2 0 6 7 10 15 3 8 1 15 -4 15 -6 0 -10
-7 -10 -15z"/>
<path d="M3857 1824 c-4 -4 -7 -19 -6 -33 l0 -26 10 24 c10 26 8 47 -4 35z"/>
<path d="M3910 1809 c0 -5 5 -7 10 -4 6 3 10 8 10 11 0 2 -4 4 -10 4 -5 0 -10
-5 -10 -11z"/>
<path d="M3476 1815 c-3 -8 -1 -15 4 -15 6 0 10 7 10 15 0 8 -2 15 -4 15 -2 0
-6 -7 -10 -15z"/>
<path d="M3575 1806 c-3 -9 -7 -23 -10 -31 -2 -8 -2 -15 1 -15 7 0 25 52 20
58 -3 3 -8 -3 -11 -12z"/>
<path d="M3145 1590 c-4 -12 -5 -24 -2 -27 3 -2 8 5 12 17 4 12 5 24 2 27 -3
2 -8 -5 -12 -17z"/>
<path d="M3457 1613 c-4 -3 -7 -16 -6 -27 0 -19 1 -19 10 3 10 24 8 36 -4 24z"/>
<path d="M4027 1413 c-4 -3 -7 -11 -7 -17 0 -6 5 -5 12 2 6 6 9 14 7 17 -3 3
-9 2 -12 -2z"/>
<path d="M4146 1394 c-4 -14 -5 -29 -2 -31 3 -3 8 7 12 21 3 15 4 29 1 32 -2
3 -8 -7 -11 -22z"/>
<path d="M3120 1389 c0 -5 5 -7 10 -4 6 3 10 8 10 11 0 2 -4 4 -10 4 -5 0 -10
-5 -10 -11z"/>
<path d="M3241 1394 c0 -11 3 -14 6 -6 3 7 2 16 -1 19 -3 4 -6 -2 -5 -13z"/>
<path d="M3384 1385 c-9 -37 0 -40 13 -5 6 17 7 30 2 30 -5 0 -11 -11 -15 -25z"/>
<path d="M3451 1394 c0 -11 3 -14 6 -6 3 7 2 16 -1 19 -3 4 -6 -2 -5 -13z"/>
<path d="M3505 1396 c-3 -9 -7 -23 -10 -31 -2 -8 -2 -15 1 -15 7 0 25 52 20
58 -3 3 -8 -3 -11 -12z"/>
<path d="M3657 1396 c-5 -15 -6 -31 -3 -34 8 -8 18 25 14 45 -3 13 -6 10 -11
-11z"/>
<path d="M977 818 c-4 -31 -2 -46 7 -37 10 11 17 69 8 69 -5 0 -12 -15 -15
-32z"/>
<path d="M1160 834 c0 -8 5 -12 10 -9 6 3 10 10 10 16 0 5 -4 9 -10 9 -5 0
-10 -7 -10 -16z"/>
<path d="M1256 812 c-4 -13 -5 -26 -2 -29 10 -11 18 4 14 29 l-4 23 -8 -23z"/>
<path d="M1366 841 c-4 -7 -5 -15 -2 -18 9 -9 19 4 14 18 -4 11 -6 11 -12 0z"/>
<path d="M1420 835 c0 -8 5 -15 10 -15 6 0 10 7 10 15 0 8 -4 15 -10 15 -5 0
-10 -7 -10 -15z"/>
<path d="M1490 835 c-8 -9 -8 -15 -2 -15 12 0 26 19 19 26 -2 2 -10 -2 -17
-11z"/>
<path d="M1550 835 c0 -8 2 -15 4 -15 2 0 6 7 10 15 3 8 1 15 -4 15 -6 0 -10
-7 -10 -15z"/>
<path d="M1766 828 c-8 -33 -7 -50 3 -44 11 7 20 66 10 66 -3 0 -9 -10 -13
-22z"/>
<path d="M3431 834 c0 -11 3 -14 6 -6 3 7 2 16 -1 19 -3 4 -6 -2 -5 -13z"/>
<path d="M3540 835 c0 -8 2 -15 4 -15 2 0 6 7 10 15 3 8 1 15 -4 15 -6 0 -10
-7 -10 -15z"/>
<path d="M3607 843 c-4 -3 -7 -11 -7 -17 0 -6 5 -5 12 2 6 6 9 14 7 17 -3 3
-9 2 -12 -2z"/>
<path d="M3747 823 c-3 -16 -1 -32 4 -37 5 -6 9 -2 9 11 0 12 3 28 6 37 3 9 2
16 -4 16 -5 0 -12 -12 -15 -27z"/>
<path d="M3920 835 c0 -8 2 -15 4 -15 2 0 6 7 10 15 3 8 1 15 -4 15 -6 0 -10
-7 -10 -15z"/>
<path d="M3910 795 c0 -8 2 -15 4 -15 2 0 6 7 10 15 3 8 1 15 -4 15 -6 0 -10
-7 -10 -15z"/>
<path d="M3986 841 c-4 -7 -5 -15 -2 -18 9 -9 19 4 14 18 -4 11 -6 11 -12 0z"/>
<path d="M4320 836 c0 -8 -3 -21 -6 -30 -3 -9 -2 -16 4 -16 5 0 12 14 14 30 3
17 1 30 -4 30 -4 0 -8 -6 -8 -14z"/>
<path d="M2717 503 c-4 -3 -7 -11 -7 -17 0 -6 5 -5 12 2 6 6 9 14 7 17 -3 3
-9 2 -12 -2z"/>
<path d="M2846 501 c-4 -7 -5 -15 -2 -18 9 -9 19 4 14 18 -4 11 -6 11 -12 0z"/>
<path d="M2977 513 c-4 -3 -7 -13 -7 -22 1 -13 3 -13 11 2 11 19 8 33 -4 20z"/>
<path d="M3147 500 c-3 -8 -8 -28 -11 -45 l-5 -30 15 34 c8 18 13 38 11 45 -3
7 -7 5 -10 -4z"/>
<path d="M3217 514 c-4 -4 -7 -14 -7 -23 0 -11 3 -12 11 -4 6 6 10 16 7 23 -2
6 -7 8 -11 4z"/>
<path d="M3274 485 c-10 -40 1 -50 13 -11 6 20 7 36 2 36 -5 0 -11 -11 -15
-25z"/>
</g>
</svg>
